<svg width="20" height="17" viewBox="0 0 20 17" fill="none" xmlns="http://www.w3.org/2000/svg">
<path d="M9.97363 0.0863419C10.0679 0.029842 10.1758 0 10.2857 0C10.3956 0 10.5035 0.029842 10.5978 0.0863419L18.8209 5.01999C19.1807 5.23587 19.4784 5.54128 19.6851 5.90646C19.8917 6.27164 20.0002 6.68412 20 7.10371V13.9644C20 14.7696 19.6802 15.5417 19.1109 16.111C18.5416 16.6803 17.7694 17.0002 16.9643 17.0002H3.60712C2.80199 17.0002 2.02985 16.6803 1.46054 16.111C0.89123 15.5417 0.571396 14.7696 0.571396 13.9644V7.10371C0.571182 6.68412 0.679681 6.27164 0.886317 5.90646C1.09295 5.54128 1.39068 5.23587 1.75047 5.01999L2.00911 5.45106L1.75047 5.01999L9.97363 0.0863419V0.0863419ZM10.2857 1.3152L2.37583 6.06185L2.35883 6.07157L10.2857 10.8279L18.2126 6.07157L18.1968 6.06185L10.2857 1.3152ZM18.7857 7.14378L10.5978 12.0568C10.5035 12.1133 10.3956 12.1431 10.2857 12.1431C10.1758 12.1431 10.0679 12.1133 9.97363 12.0568L1.78568 7.14378V13.9644C1.78568 14.4475 1.97758 14.9108 2.31917 15.2524C2.66075 15.594 3.12404 15.7859 3.60712 15.7859H16.9643C17.4474 15.7859 17.9106 15.594 18.2522 15.2524C18.5938 14.9108 18.7857 14.4475 18.7857 13.9644V7.14378Z" fill="white"/>
</svg>
